<?xml version="1.0" encoding="iso-8859-1"?>
<!-- Generator: Adobe Illustrator 17.1.0, SVG Export Plug-In . SVG Version: 6.00 Build 0)  -->
<!DOCTYPE svg PUBLIC "-//W3C//DTD SVG 1.1//EN" "http://www.w3.org/Graphics/SVG/1.1/DTD/svg11.dtd">
<svg version="1.1" id="Capa_1" xmlns="http://www.w3.org/2000/svg" xmlns:xlink="http://www.w3.org/1999/xlink" x="0px" y="0px"
	 viewBox="0 0 423.778 423.778" style="enable-background:new 0 0 423.778 423.778;" xml:space="preserve">
<path id="XMLID_324_" d="M150.885,380.539c0,4.971-4.029,9-9,9H90.509c-4.971,0-9-4.029-9-9V57.924c0-4.971,4.029-9,9-9h274.173
	c4.971,0,9,4.029,9,9v37.455c0,4.971-4.029,9-9,9s-9-4.029-9-9V66.924H99.509v304.615h42.376
	C146.856,371.539,150.885,375.568,150.885,380.539z M55.334,322.615h-8.415V18h256.176v7.416c0,4.971,4.029,9,9,9s9-4.029,9-9V9
	c0-4.971-4.029-9-9-9H37.919c-4.971,0-9,4.029-9,9v322.615c0,4.971,4.029,9,9,9h17.415c4.971,0,9-4.029,9-9
	S60.305,322.615,55.334,322.615z M211.346,282.56c0.06-19.75-9.069-33.88-27.133-41.998c-4.533-2.037-9.861-0.014-11.898,4.52
	c-2.038,4.534-0.014,9.861,4.52,11.898c24.172,10.862,17.918,34.125,5.713,71.182c-10.685,32.438-22.795,69.204,3.583,93.266
	c1.726,1.575,3.897,2.351,6.063,2.351c2.442,0,4.877-0.988,6.652-2.935c3.35-3.672,3.088-9.365-0.584-12.714
	c-17.765-16.206-8.464-44.442,1.382-74.336C205.373,316.397,211.298,298.41,211.346,282.56z M379.177,177.334
	c0.816,2.243,0.709,4.718-0.3,6.882L276.619,403.507c-0.891,1.908-2.421,3.444-4.327,4.34l-32.048,15.073
	c-3.606,1.497-6.428,0.575-7.634,0.013c-2.421-1.129-4.215-3.274-4.897-5.856l-9.052-34.238c-0.538-2.036-0.346-4.195,0.544-6.104
	l102.257-219.291c1.009-2.163,2.836-3.837,5.079-4.653c2.243-0.817,4.717-0.709,6.882,0.3l41.101,19.166
	C376.687,173.265,378.361,175.091,379.177,177.334z M358.76,184.766l-24.787-11.558l-97.076,208.18l5.459,20.648l19.327-9.09
	L358.76,184.766z M364.682,275.413c-4.971,0-9,4.029-9,9v87.126h-32.326c-4.971,0-9,4.029-9,9s4.029,9,9,9h41.326
	c4.971,0,9-4.029,9-9v-96.126C373.682,279.442,369.653,275.413,364.682,275.413z M389.66,139.797l-41.103-19.166
	c-4.504-2.099-9.859-0.151-11.961,4.353c-2.101,4.505-0.151,9.86,4.354,11.96l41.103,19.166c1.23,0.574,2.524,0.845,3.798,0.845
	c3.39,0,6.636-1.924,8.163-5.198C396.114,147.252,394.165,141.897,389.66,139.797z"/>
<g>
</g>
<g>
</g>
<g>
</g>
<g>
</g>
<g>
</g>
<g>
</g>
<g>
</g>
<g>
</g>
<g>
</g>
<g>
</g>
<g>
</g>
<g>
</g>
<g>
</g>
<g>
</g>
<g>
</g>
</svg>
