<?xml version="1.0" encoding="iso-8859-1"?>
<!-- Generator: Adobe Illustrator 17.1.0, SVG Export Plug-In . SVG Version: 6.00 Build 0)  -->
<!DOCTYPE svg PUBLIC "-//W3C//DTD SVG 1.1//EN" "http://www.w3.org/Graphics/SVG/1.1/DTD/svg11.dtd">
<svg version="1.1" id="Capa_1" xmlns="http://www.w3.org/2000/svg" xmlns:xlink="http://www.w3.org/1999/xlink" x="0px" y="0px"
	 viewBox="0 0 436.217 436.217" style="enable-background:new 0 0 436.217 436.217;" xml:space="preserve">
<path id="XMLID_185_" d="M122.125,186.756v-69.012c0-52.926,43.058-95.983,95.984-95.983c9.618,0,19.131,1.438,28.272,4.274
	c0.003,0,0.005,0.001,0.008,0.002c8.033,2.492,15.73,6.054,22.881,10.586c28.066,17.797,44.822,48.123,44.822,81.121v68.216
	c0,4.971-4.029,9-9,9s-9-4.029-9-9v-68.216c0-26.8-13.63-51.442-36.46-65.919c-5.809-3.682-12.06-6.574-18.577-8.597
	c-0.001,0-0.002-0.001-0.004-0.001c-7.414-2.301-15.133-3.467-22.942-3.467c-43,0-77.984,34.983-77.984,77.983v69.012
	c0,4.971-4.029,9-9,9S122.125,191.727,122.125,186.756z M276.255,16.912c18.293,9.925,33.456,24.714,43.849,42.767
	c9.655,16.775,14.759,35.87,14.759,55.22c0,4.971,4.029,9,9,9s9-4.029,9-9c0-22.496-5.933-44.695-17.158-64.199
	c-12.055-20.94-29.645-38.096-50.865-49.609c-4.369-2.367-9.831-0.749-12.203,3.619C270.266,9.078,271.886,14.541,276.255,16.912z
	 M254.57,138.198h-72.922c-4.971,0-9,4.029-9,9s4.029,9,9,9h72.922c4.971,0,9-4.029,9-9S259.541,138.198,254.57,138.198z
	 M227.109,370.905v47.311h43.389c4.971,0,9,4.029,9,9s-4.029,9-9,9H218.3c-0.063,0.001-0.127,0.002-0.191,0.002
	s-0.127-0.001-0.191-0.002h-52.197c-4.971,0-9-4.029-9-9s4.029-9,9-9h43.388v-47.311c-75.355-4.665-135.235-67.45-135.235-143.957
	c0-4.971,4.029-9,9-9h270.469c4.971,0,9,4.029,9,9C362.343,303.459,302.467,366.248,227.109,370.905z M344.026,235.948h-30.379
	c-2.169,22.474-12.175,43.348-28.59,59.365c-18.075,17.638-41.851,27.351-66.948,27.351c-36.343,0-70.208-21.209-86.275-54.031
	c-2.186-4.465-0.338-9.855,4.126-12.041c4.466-2.184,9.855-0.337,12.041,4.127c13.068,26.696,40.587,43.945,70.108,43.945
	c39.449,0,72.77-30.221,77.428-68.716H92.191c4.629,65.423,59.335,117.234,125.916,117.234
	C284.691,353.182,339.397,301.371,344.026,235.948z M254.57,177.756h-72.922c-4.971,0-9,4.029-9,9s4.029,9,9,9h72.922
	c4.971,0,9-4.029,9-9S259.541,177.756,254.57,177.756z M254.57,98.64h-72.922c-4.971,0-9,4.029-9,9s4.029,9,9,9h72.922
	c4.971,0,9-4.029,9-9S259.541,98.64,254.57,98.64z"/>
<g>
</g>
<g>
</g>
<g>
</g>
<g>
</g>
<g>
</g>
<g>
</g>
<g>
</g>
<g>
</g>
<g>
</g>
<g>
</g>
<g>
</g>
<g>
</g>
<g>
</g>
<g>
</g>
<g>
</g>
</svg>
