<?xml version="1.0" encoding="iso-8859-1"?>
<!-- Generator: Adobe Illustrator 17.1.0, SVG Export Plug-In . SVG Version: 6.00 Build 0)  -->
<!DOCTYPE svg PUBLIC "-//W3C//DTD SVG 1.1//EN" "http://www.w3.org/Graphics/SVG/1.1/DTD/svg11.dtd">
<svg version="1.1" id="Capa_1" xmlns="http://www.w3.org/2000/svg" xmlns:xlink="http://www.w3.org/1999/xlink" x="0px" y="0px"
	 viewBox="0 0 411.376 411.376" style="enable-background:new 0 0 411.376 411.376;" xml:space="preserve">
<path id="XMLID_141_" d="M235.477,7.38c-2.801-1.603-6.245-1.584-9.028,0.049l-57.007,33.465
	c-22.91,13.45-49.607,32.106-58.534,59.214H69.852c-4.971,0-9,4.029-9,9v21.288C26.112,135.466,0,160.261,0,189.647v32.271
	c0,29.386,26.112,54.181,60.852,59.251v21.289c0,4.971,4.029,9,9,9h41.055c8.926,27.112,35.624,45.765,58.535,59.214l57.007,33.465
	c1.406,0.825,5.823,1.855,9.028,0.049c2.812-1.584,4.528-4.584,4.528-7.811V15.19C240.005,11.964,238.278,8.983,235.477,7.38z
	 M60.852,262.937C36.185,258.439,18,241.624,18,221.917v-32.271c0-19.707,18.185-36.521,42.852-41.02V262.937z M222.005,380.654
	l-43.451-25.507c-21.653-12.711-47.12-30.386-51.899-54.444c-0.837-4.212-4.533-7.246-8.828-7.246H78.852v-175.35h29.975V248.14
	c0,4.971,4.029,9,9,9s9-4.029,9-9V110.036c5.19-23.636,30.322-41.054,51.727-53.619l43.451-25.507V380.654z M411.376,205.781
	c0,59.9-27.036,114.868-70.559,143.451c-1.522,1-3.237,1.479-4.932,1.479c-2.931,0-5.803-1.429-7.531-4.061
	c-2.729-4.154-1.573-9.734,2.582-12.463c38.514-25.295,62.439-74.497,62.439-128.406S369.451,102.67,330.937,77.375
	c-4.155-2.729-5.311-8.309-2.582-12.463c2.729-4.154,8.311-5.31,12.463-2.582C384.34,90.914,411.376,145.881,411.376,205.781z
	 M312.481,312.418c-1.5,0.957-3.176,1.413-4.831,1.413c-2.972,0-5.88-1.47-7.597-4.161c-2.673-4.19-1.442-9.755,2.748-12.428
	c28.213-17.995,45.739-53.041,45.739-91.461s-17.526-73.466-45.739-91.461c-4.19-2.673-5.421-8.237-2.748-12.428
	c2.673-4.189,8.237-5.421,12.428-2.748c33.345,21.269,54.06,62.129,54.06,106.637S345.826,291.149,312.481,312.418z
	 M286.636,270.076c-1.506,0.969-3.191,1.431-4.857,1.431c-2.961,0-5.859-1.459-7.58-4.135c-2.688-4.181-1.477-9.749,2.705-12.438
	c16.824-10.814,26.868-29.189,26.868-49.153s-10.044-38.339-26.868-49.154c-4.182-2.688-5.393-8.256-2.705-12.437
	c2.688-4.182,8.255-5.394,12.438-2.705c22.001,14.143,35.136,38.178,35.136,64.296S308.637,255.935,286.636,270.076z"/>
<g>
</g>
<g>
</g>
<g>
</g>
<g>
</g>
<g>
</g>
<g>
</g>
<g>
</g>
<g>
</g>
<g>
</g>
<g>
</g>
<g>
</g>
<g>
</g>
<g>
</g>
<g>
</g>
<g>
</g>
</svg>
